<?xml version="1.0" standalone="no"?>
<!DOCTYPE svg PUBLIC "-//W3C//DTD SVG 20010904//EN"
 "http://www.w3.org/TR/2001/REC-SVG-20010904/DTD/svg10.dtd">
<svg version="1.0" xmlns="http://www.w3.org/2000/svg"
 width="167.000000pt" height="230.000000pt" viewBox="0 0 167.000000 230.000000"
 preserveAspectRatio="xMidYMid meet">

<g transform="translate(0.000000,230.000000) scale(0.100000,-0.100000)"
fill="#8047F8" stroke="none">
<path d="M382 2017 c-6 -7 -14 -40 -18 -73 -10 -84 -17 -94 -68 -94 -65 0 -76
-18 -76 -123 l0 -87 620 0 620 0 0 79 c0 100 -15 122 -86 130 l-49 6 -5 78
c-3 54 -10 81 -20 87 -9 6 -198 10 -461 10 -357 0 -449 -3 -457 -13z"/>
<path d="M324 1508 c4 -35 22 -283 41 -553 42 -592 42 -595 60 -595 21 0 24
-10 36 -121 6 -57 15 -108 19 -112 13 -15 92 34 146 89 94 95 151 243 161 411
l6 93 -37 0 c-32 0 -39 4 -50 31 l-13 31 -35 -34 c-19 -18 -38 -40 -41 -48
-10 -27 -27 10 -27 59 0 52 31 122 66 150 15 12 24 29 24 47 0 50 30 156 61
218 35 73 91 142 107 133 21 -14 91 -128 111 -182 12 -31 26 -88 32 -128 9
-57 17 -78 39 -102 53 -56 73 -131 49 -192 -10 -27 -11 -27 -21 -8 -13 24 -59
75 -68 75 -4 0 -12 -11 -18 -25 -10 -21 -19 -25 -53 -25 l-41 0 7 -83 c20
-233 129 -433 275 -505 l45 -22 15 123 c13 109 17 122 35 125 20 3 22 23 63
595 24 326 43 598 42 605 0 9 -111 12 -521 12 l-521 0 6 -62z"/>
</g>
</svg>
